# xmcd
#
# Track frame offsets:
#   150
#   18835
#   35577
#   56437
#   72372
#   86340
#   102162
#   124075
#   146464
#   158368
#   180799
#   198619
#   215652
#   240889
#   255828
#
# Disc length: 3701 seconds
#
# Revision: 0
# Processed by: cddbd v1.5.1PL2 Copyright (c) Steve Scherf et al.
# Submitted via: uFREEDB ActiveX Control 1.5
#
DISCID=b50e730f
DTITLE=Bada Castro - V Sapecada da Serra Catarinense
DYEAR=2005
DGENRE=Country
TTITLE0=Tranco da Vida
TTITLE1=Moda Nova
TTITLE2=A Alma do Velho Tropeiro
TTITLE3=Vanerão da Mal Costeada
TTITLE4=Medicina Campeira
TTITLE5=A Estrada e a Cruz
TTITLE6=Pixurum
TTITLE7=Zamba de Lua e Estrela
TTITLE8=Com a Alma nas Brasas
TTITLE9=Na Estância do Passa Dois
TTITLE10=Pra se Bandear pelo Mundo
TTITLE11=Desmandos
TTITLE12=Pra Quem Domou Nostalgia
TTITLE13=Pegando a Estrada
TTITLE14=Você Também Milongaria
EXTD=
EXTT0=
EXTT1=
EXTT2=
EXTT3=
EXTT4=
EXTT5=
EXTT6=
EXTT7=
EXTT8=
EXTT9=
EXTT10=
EXTT11=
EXTT12=
EXTT13=
EXTT14=
PLAYORDER=
